<svg width="32" height="32" viewBox="0 0 32 32" fill="none" xmlns="http://www.w3.org/2000/svg">
<rect width="32" height="32" fill="black"/>
<path d="M19.792 0.0498047V1.45703H19.1748V7.58594C19.1748 10.0073 20.6841 11.2934 21.4268 11.6562V11.6572L21.4951 11.6885L21.4961 11.6895L21.5342 11.7061L21.5654 11.7236C26.736 14.7075 27.9502 19.9897 27.9502 22.5439C27.9502 24.2729 27.6067 26.1468 27.1201 27.7734C26.6683 29.2835 26.0718 30.6532 25.457 31.5137L25.333 31.6787L25.123 31.9502H7.87695L7.66699 31.6787C7.00933 30.835 6.36179 29.3843 5.87988 27.7734C5.39326 26.1468 5.04981 24.2729 5.0498 22.5439C5.0498 19.9897 6.26396 14.7075 11.4346 11.7236L11.4658 11.7061L11.5039 11.6895L11.5049 11.6885L11.5732 11.6572V11.6562C12.3159 11.2934 13.8252 10.0073 13.8252 7.58594V1.45703H13.208V0.0498047H19.792ZM15.2334 7.58594C15.2334 10.7151 13.2367 12.4445 12.1133 12.959L12.1123 12.958L12.1084 12.9609C7.54275 15.6138 6.45801 20.3065 6.45801 22.5439C6.45801 24.1039 6.77052 25.8391 7.22852 27.3701C7.6288 28.7081 8.122 29.8273 8.57031 30.5195L8.58496 30.543H24.415L24.4297 30.5195C24.878 29.8273 25.3712 28.7081 25.7715 27.3701C26.2295 25.8391 26.542 24.1039 26.542 22.5439C26.542 20.3065 25.4573 15.6138 20.8916 12.9609L20.8867 12.959L20.667 12.8477C19.5219 12.2224 17.7666 10.5197 17.7666 7.58594V1.45703H15.2334V7.58594ZM20.4961 17.7764C20.8623 17.7764 21.1291 17.9124 21.3281 18.1387C21.5289 18.3669 21.6627 18.6896 21.7559 19.0645C22.0159 20.1094 22.0262 20.8875 21.7568 21.6953V21.6963C21.6246 22.0938 21.4898 22.4167 21.2979 22.6406C21.1087 22.8611 20.8621 22.9882 20.4961 22.9883H16.5225V23.4209H19.1377V24.3672C19.1377 24.7281 18.9827 24.9999 18.7471 25.2061C18.5099 25.4135 18.1902 25.5551 17.8643 25.6494C16.8831 25.934 16.0983 25.8903 15.2783 25.6494C14.5905 25.4471 14.0049 25.0402 14.0049 24.3672V21.876C14.0051 21.1861 14.5766 20.597 15.2637 20.5967H17.8789C18.7776 20.5964 19.5632 19.8163 19.5635 18.8887V17.7764H20.4961ZM18.043 23.9854C17.7447 23.9855 17.502 24.2304 17.502 24.5322C17.502 24.8347 17.7442 25.0819 18.043 25.082C18.3428 25.082 18.584 24.8347 18.584 24.5322C18.584 24.2304 18.3425 23.9854 18.043 23.9854ZM16.5146 14.9805C16.9596 14.9784 17.4237 15.0126 17.8701 15.0869C18.5641 15.2025 19.1367 15.7201 19.1367 16.3975V18.8887C19.1366 19.5925 18.577 20.168 17.8779 20.168H15.2637C14.3487 20.1682 13.5793 20.952 13.5791 21.8428V22.9883H12.7285C12.3619 22.9882 12.0735 22.8559 11.8535 22.6309C11.6324 22.4045 11.4784 22.0819 11.3867 21.7002C11.2618 21.1824 11.2028 20.771 11.2041 20.3662C11.2054 19.9614 11.2671 19.5605 11.3867 19.0645C11.5895 18.2186 12.2346 17.7765 12.9727 17.7764H16.623V17.3447H14.0049V16.3975C14.0049 16.0227 14.0558 15.747 14.2324 15.54C14.4096 15.3324 14.7223 15.1841 15.2725 15.0869C15.6452 15.0209 16.0699 14.9826 16.5146 14.9805ZM15.0996 15.6826C14.7998 15.6826 14.5586 15.93 14.5586 16.2324C14.5586 16.5342 14.8001 16.7793 15.0996 16.7793C15.398 16.7792 15.6406 16.5342 15.6406 16.2324C15.6406 15.93 15.3983 15.6827 15.0996 15.6826Z" fill="white" stroke="black" stroke-width="0.1"/>
</svg>
